<mxfile host="app.diagrams.net" modified="2021-07-04T07:47:32.748Z" agent="5.0 (Windows NT 10.0; Win64; x64) AppleWebKit/537.36 (KHTML, like Gecko) Chrome/87.0.4280.66 Safari/537.36" etag="ufsd7cmlncQ2gGVfnbjV" version="14.8.4" type="github">
  <diagram id="prtHgNgQTEPvFCAcTncT" name="Page-1">
    <mxGraphModel dx="1038" dy="580" grid="0" gridSize="10" guides="1" tooltips="1" connect="1" arrows="1" fold="1" page="1" pageScale="1" pageWidth="827" pageHeight="1169" math="0" shadow="0">
      <root>
        <mxCell id="0" />
        <mxCell id="1" parent="0" />
        <mxCell id="k6uhKt3Hn7oym8SlnJA1-1" value="" style="swimlane;startSize=0;dashed=1;fillColor=#008a00;strokeColor=#005700;fontColor=#ffffff;" parent="1" vertex="1">
          <mxGeometry x="344" y="192" width="438" height="222" as="geometry" />
        </mxCell>
        <mxCell id="k6uhKt3Hn7oym8SlnJA1-17" value="&lt;font style=&quot;font-size: 18px&quot;&gt;AWSIoT服务测试控制台&lt;/font&gt;" style="rounded=1;whiteSpace=wrap;html=1;strokeWidth=4;strokeColor=#CCFFCC;" parent="k6uhKt3Hn7oym8SlnJA1-1" vertex="1">
          <mxGeometry x="14" y="15" width="348" height="60" as="geometry" />
        </mxCell>
        <mxCell id="k6uhKt3Hn7oym8SlnJA1-2" value="&lt;font style=&quot;font-size: 18px&quot;&gt;MQTT&lt;br&gt;Broker&lt;/font&gt;" style="ellipse;shape=cloud;whiteSpace=wrap;html=1;strokeColor=#CCCCCC;strokeWidth=3;fillColor=#FFFFFF;" parent="1" vertex="1">
          <mxGeometry x="28" y="219" width="204" height="140.5" as="geometry" />
        </mxCell>
        <mxCell id="k6uhKt3Hn7oym8SlnJA1-12" value="" style="shape=flexArrow;endArrow=classic;html=1;endWidth=6;endSize=5.26;entryX=0.001;entryY=0.824;entryDx=0;entryDy=0;entryPerimeter=0;strokeColor=#B20000;fillColor=#CCCCFF;" parent="1" target="k6uhKt3Hn7oym8SlnJA1-1" edge="1">
          <mxGeometry width="50" height="50" relative="1" as="geometry">
            <mxPoint x="223" y="319" as="sourcePoint" />
            <mxPoint x="325" y="364" as="targetPoint" />
          </mxGeometry>
        </mxCell>
        <mxCell id="k6uhKt3Hn7oym8SlnJA1-14" value="" style="shape=flexArrow;endArrow=classic;html=1;endWidth=6;endSize=5.26;strokeColor=#005700;fillColor=#CCFFCC;" parent="1" edge="1">
          <mxGeometry width="50" height="50" relative="1" as="geometry">
            <mxPoint x="344" y="241" as="sourcePoint" />
            <mxPoint x="208" y="287" as="targetPoint" />
          </mxGeometry>
        </mxCell>
        <mxCell id="k6uhKt3Hn7oym8SlnJA1-15" value="" style="shape=flexArrow;endArrow=classic;html=1;endWidth=6;endSize=5.26;strokeColor=#B20000;fillColor=#CCCCFF;" parent="1" edge="1">
          <mxGeometry width="50" height="50" relative="1" as="geometry">
            <mxPoint x="338" y="398" as="sourcePoint" />
            <mxPoint x="210" y="332" as="targetPoint" />
          </mxGeometry>
        </mxCell>
        <mxCell id="k6uhKt3Hn7oym8SlnJA1-20" value="&lt;font style=&quot;font-size: 18px&quot;&gt;Subscribe&lt;/font&gt;" style="edgeLabel;html=1;align=center;verticalAlign=middle;resizable=0;points=[];rotation=30;" parent="k6uhKt3Hn7oym8SlnJA1-15" vertex="1" connectable="0">
          <mxGeometry x="0.2158" y="9" relative="1" as="geometry">
            <mxPoint x="13" y="18" as="offset" />
          </mxGeometry>
        </mxCell>
        <mxCell id="k6uhKt3Hn7oym8SlnJA1-16" value="" style="shape=flexArrow;endArrow=classic;html=1;endWidth=6;endSize=5.26;exitX=0.92;exitY=0.29;exitDx=0;exitDy=0;exitPerimeter=0;strokeColor=#005700;fillColor=#CCFFCC;" parent="1" source="k6uhKt3Hn7oym8SlnJA1-2" edge="1">
          <mxGeometry width="50" height="50" relative="1" as="geometry">
            <mxPoint x="252" y="280" as="sourcePoint" />
            <mxPoint x="344" y="221" as="targetPoint" />
          </mxGeometry>
        </mxCell>
        <mxCell id="k6uhKt3Hn7oym8SlnJA1-18" value="&lt;font style=&quot;font-size: 18px&quot;&gt;Publish&lt;/font&gt;" style="edgeLabel;html=1;align=center;verticalAlign=middle;resizable=0;points=[];rotation=-15;" parent="k6uhKt3Hn7oym8SlnJA1-16" vertex="1" connectable="0">
          <mxGeometry x="-0.2142" relative="1" as="geometry">
            <mxPoint y="-25" as="offset" />
          </mxGeometry>
        </mxCell>
        <mxCell id="k6uhKt3Hn7oym8SlnJA1-19" value="&lt;span style=&quot;font-size: 18px&quot;&gt;统一的网关设备&lt;/span&gt;" style="rounded=1;whiteSpace=wrap;html=1;strokeWidth=4;strokeColor=#CCCCFF;" parent="1" vertex="1">
          <mxGeometry x="359" y="338" width="348" height="60" as="geometry" />
        </mxCell>
      </root>
    </mxGraphModel>
  </diagram>
</mxfile>
